HIERARCHY
ROOT Beta:Hips
{
	OFFSET 0.00 0.00 0.00
	CHANNELS 6 Xposition Yposition Zposition Yrotation Xrotation Zrotation
	JOINT Beta:Spine
	{
		OFFSET	0.0000	9.2263	1.5771
		CHANNELS 3 Xrotation Yrotation Zrotation
		JOINT Beta:Spine1
		{
			OFFSET	0.0000	16.2540	-0.1656
			CHANNELS 3 Xrotation Yrotation Zrotation
			JOINT Beta:Spine2
			{
				OFFSET	0.0000	13.6396	-1.2923
				CHANNELS 3 Xrotation Yrotation Zrotation
				JOINT Beta:Neck
				{
					OFFSET	0.0000	13.8774	-4.3542
					CHANNELS 3 Xrotation Yrotation Zrotation
					JOINT Beta:Neck1
					{
						OFFSET	0.0000	4.3400	0.9269
						CHANNELS 3 Xrotation Yrotation Zrotation
						JOINT Beta:Head
						{
							OFFSET	0.0000	4.0266	0.8585
							CHANNELS 3 Xrotation Yrotation Zrotation
							End Site
							{
								OFFSET 0.0000 23.0297 0.1231
							}
						}
					}
				}
				JOINT Beta:LeftShoulder
				{
					OFFSET	6.1442	10.1870	-3.7932
					CHANNELS 3 Zrotation Xrotation Yrotation
					JOINT Beta:LeftArm
					{
						OFFSET	12.3191	-1.1130	-1.7935
						CHANNELS 3 Zrotation Xrotation Yrotation
						JOINT Beta:LeftForeArm
						{
							OFFSET	27.6870	0.0000	0.0000
							CHANNELS 3 Xrotation Zrotation Yrotation
							JOINT Beta:LeftHand
							{
								OFFSET	27.8738	0.0000	0.0000
								CHANNELS 3 Zrotation Yrotation Xrotation
								JOINT Beta:LeftHandThumb1
								{
									OFFSET	2.3785	-1.0029	2.6209
									CHANNELS 3 Zrotation Xrotation Yrotation
									JOINT Beta:LeftHandThumb2
									{
										OFFSET	3.3624	-1.0029	2.8398
										CHANNELS 3 Zrotation Xrotation Yrotation
										JOINT Beta:LeftHandThumb3
										{
											OFFSET	4.5018	-1.3445	2.1783
											CHANNELS 3 Zrotation Xrotation Yrotation
											End Site
											{
												OFFSET 2.6000 -1.0000 1.0000
											}
										}
									}
								}
								JOINT Beta:LeftHandMiddle1
								{
									OFFSET	10.4639	0.6148	0.4298
									CHANNELS 3 Zrotation Xrotation Yrotation
									JOINT Beta:LeftHandMiddle2
									{
										OFFSET	5.7921	0.0000	0.0000
										CHANNELS 3 Zrotation Xrotation Yrotation
										JOINT Beta:LeftHandMiddle3
										{
											OFFSET	3.7132	0.0000	0.0000
											CHANNELS 3 Zrotation Xrotation Yrotation
											End Site
											{
												OFFSET 2.3000 0.0000 0.0000
											}
										}
									}
								}
								JOINT Beta:LeftHandIndex1
								{
									OFFSET	10.3945	0.6148	2.7055
									CHANNELS 3 Zrotation Xrotation Yrotation
									JOINT Beta:LeftHandIndex2
									{
										OFFSET	5.5493	0.0000	0.0000
										CHANNELS 3 Zrotation Xrotation Yrotation
										JOINT Beta:LeftHandIndex3
										{
											OFFSET	3.3911	0.0000	0.0000
											CHANNELS 3 Zrotation Xrotation Yrotation
											End Site
											{
												OFFSET 2.5000 0.0000 0.0000
											}
										}
									}
								}
								JOINT Beta:LeftHandRing1
								{
									OFFSET	10.3252	0.3211	-1.8755
									CHANNELS 3 Zrotation Xrotation Yrotation
									JOINT Beta:LeftHandRing2
									{
										OFFSET	5.4452	0.0000	0.0000
										CHANNELS 3 Zrotation Xrotation Yrotation
										JOINT Beta:LeftHandRing3
										{
											OFFSET	3.7132	0.0000	0.0000
											CHANNELS 3 Zrotation Xrotation Yrotation
											End Site
											{
												OFFSET 2.0000 0.0000 0.0000
											}
										}
									}
								}
								JOINT Beta:LeftHandPinky1
								{
									OFFSET	10.0130	-0.0783	-3.9671
									CHANNELS 3 Zrotation Xrotation Yrotation
									JOINT Beta:LeftHandPinky2
									{
										OFFSET	3.6763	0.0000	0.0000
										CHANNELS 3 Zrotation Xrotation Yrotation
										JOINT Beta:LeftHandPinky3
										{
											OFFSET	2.8113	0.0000	0.0000
											CHANNELS 3 Zrotation Xrotation Yrotation
											End Site
											{
												OFFSET 2.9000 0.0000 0.0000
											}
										}
									}
								}
							}
						}
					}
				}
				JOINT Beta:RightShoulder
				{
					OFFSET	-6.1402	10.1870	-3.7932
					CHANNELS 3 Zrotation Xrotation Yrotation
					JOINT Beta:RightArm
					{
						OFFSET	-12.3231	-1.1130	-1.7935
						CHANNELS 3 Zrotation Xrotation Yrotation
						JOINT Beta:RightForeArm
						{
							OFFSET	-27.6870	0.0000	0.0000
							CHANNELS 3 Xrotation Zrotation Yrotation
							JOINT Beta:RightHand
							{
								OFFSET	-27.8738	0.0000	0.0000
								CHANNELS 3 Zrotation Yrotation Xrotation
								JOINT Beta:RightHandThumb1
								{
									OFFSET	-2.5178	-0.9367	2.5137
									CHANNELS 3 Zrotation Xrotation Yrotation
									JOINT Beta:RightHandThumb2
									{
										OFFSET	-3.2638	-1.0870	2.9669
										CHANNELS 3 Zrotation Xrotation Yrotation
										JOINT Beta:RightHandThumb3
										{
											OFFSET	-4.4165	-1.3703	2.1350
											CHANNELS 3 Zrotation Xrotation Yrotation
											End Site
											{
												OFFSET -2.6000 -1.0000 1.0000
											}
										}
									}
								}
								JOINT Beta:RightHandIndex1
								{
									OFFSET	-10.4665	0.4896	2.7120
									CHANNELS 3 Zrotation Xrotation Yrotation
									JOINT Beta:RightHandIndex2
									{
										OFFSET	-5.3768	0.0000	0.0000
										CHANNELS 3 Zrotation Xrotation Yrotation
										JOINT Beta:RightHandIndex3
										{
											OFFSET	-3.3855	0.0000	0.0000
											CHANNELS 3 Zrotation Xrotation Yrotation
											End Site
											{
												OFFSET -2.6000 0.0000 0.0000
											}
										}
									}
								}
								JOINT Beta:RightHandMiddle1
								{
									OFFSET	-10.7596	0.4896	0.4278
									CHANNELS 3 Zrotation Xrotation Yrotation
									JOINT Beta:RightHandMiddle2
									{
										OFFSET	-5.6168	0.0000	0.0000
										CHANNELS 3 Zrotation Xrotation Yrotation
										JOINT Beta:RightHandMiddle3
										{
											OFFSET	-3.7364	0.0000	0.0000
											CHANNELS 3 Zrotation Xrotation Yrotation
											End Site
											{
												OFFSET -2.3000 0.0000 0.0000
											}
										}
									}
								}
								JOINT Beta:RightHandRing1
								{
									OFFSET	-10.4702	0.3879	-1.9363
									CHANNELS 3 Zrotation Xrotation Yrotation
									JOINT Beta:RightHandRing2
									{
										OFFSET	-5.4013	0.0000	0.0000
										CHANNELS 3 Zrotation Xrotation Yrotation
										JOINT Beta:RightHandRing3
										{
											OFFSET	-3.3916	0.0000	0.0000
											CHANNELS 3 Zrotation Xrotation Yrotation
											End Site
											{
												OFFSET -2.2000 0.0000 0.0000
											}
										}
									}
								}
								JOINT Beta:RightHandPinky1
								{
									OFFSET	-9.9715	-0.1191	-3.9540
									CHANNELS 3 Zrotation Xrotation Yrotation
									JOINT Beta:RightHandPinky2
									{
										OFFSET	-3.6528	0.0000	0.0000
										CHANNELS 3 Zrotation Xrotation Yrotation
										JOINT Beta:RightHandPinky3
										{
											OFFSET	-2.7820	0.0000	0.0000
											CHANNELS 3 Zrotation Xrotation Yrotation
											End Site
											{
												OFFSET -2.9000 0.0000 0.0000
											}
										}
									}
								}
							}
						}
					}
				}
			}
		}
	}
	JOINT Beta:LeftUpLeg
	{
		OFFSET	9.6338	-3.2733	0.0000
		CHANNELS 3 Xrotation Yrotation Zrotation
		JOINT Beta:LeftLeg
		{
			OFFSET	0.0000	-41.7300	-1.7300
			CHANNELS 3 Xrotation Yrotation Zrotation
			JOINT Beta:LeftFoot
			{
				OFFSET	0.0126	-39.1900	-0.8477
				CHANNELS 3 Xrotation Yrotation Zrotation
				JOINT Beta:LeftToeBase
				{
					OFFSET	-0.1833	-12.1931	8.2823
					CHANNELS 3 Xrotation Yrotation Zrotation
					End Site
					{
						OFFSET 0.0000 0.0000 10.1681
					}
				}
			}
		}
	}
	JOINT Beta:RightUpLeg
	{
		OFFSET	-9.6338	-3.2733	0.0000
		CHANNELS 3 Xrotation Yrotation Zrotation
		JOINT Beta:RightLeg
		{
			OFFSET	0.0000	-41.7300	-1.7300
			CHANNELS 3 Xrotation Yrotation Zrotation
			JOINT Beta:RightFoot
			{
				OFFSET	0.0126	-39.1900	-0.8477
				CHANNELS 3 Xrotation Yrotation Zrotation
				JOINT Beta:RightToeBase
				{
					OFFSET	-0.1833	-12.1931	8.2823
					CHANNELS 3 Xrotation Yrotation Zrotation
					End Site
					{
						OFFSET 0.0032 0.0000 10.1681
					}
				}
			}
		}
	}
}
MOTION
Frames: 4
Frame Time: 0.0333333
0.0814 94.5715 -0.0276 0.3300 -5.0141 -0.5463 4.1854 2.4630 -0.0020 0.9579 0.6840 0.0827 0.9604 0.6804 0.0765 -0.6531 -0.2922 0.2091 -0.0000 0.0000 -0.0000 3.1485 -1.2407 -1.9283 -20.4039 1.8745 -3.4691 -56.2385 6.1875 -12.0160 -0.0000 0.0000 -8.4222 -0.9833 -1.3331 16.8304 8.0228 2.2940 6.1505 -7.3935 10.0019 9.5155 20.2486 -22.8247 -18.2727 -35.0022 0.0032 0.3072 -31.3014 0.0022 -0.0078 -20.6418 0.0010 -0.0053 -25.6619 0.0037 -3.4357 -29.3251 0.0019 -0.0074 -16.6951 0.0006 -0.0043 -36.5456 0.0034 4.2705 -41.3452 0.0038 -0.0099 -15.8544 0.0006 -0.0041 -33.1995 -0.1281 1.5120 -28.5800 0.0018 -0.0072 -19.8488 0.0009 -0.0051 18.2266 1.0664 0.7902 58.1215 5.4892 5.0378 0.0000 0.0000 8.4250 -0.6583 7.3549 12.4823 -3.8250 -2.7132 -4.2572 0.0929 9.0003 -15.0274 -17.1574 -9.6254 19.5627 20.0201 0.0006 1.9161 41.1131 0.0019 0.0052 18.5809 0.0004 0.0025 33.0569 0.0015 -0.8569 38.1604 0.0017 0.0049 14.6376 0.0003 0.0020 39.3765 0.0020 -3.8441 33.8969 0.0013 0.0044 17.1752 0.0004 0.0023 42.2959 0.0023 0.2995 38.4750 0.0017 0.0049 26.1430 0.0008 0.0035 -23.8708 6.8045 9.6128 58.5780 -1.1344 0.9807 -4.7557 0.7745 -10.1559 0.7679 -0.0000 -0.0000 -3.0780 -7.7079 6.6598 18.0453 1.3574 1.8951 -9.6468 0.7350 -9.2353 -0.1786 -0.0000 -0.0000 
-0.0039 94.3231 -2.6453 1.9169 -5.1877 -0.8043 3.5824 1.8379 0.2607 0.8810 0.5161 0.1200 0.8829 0.5137 0.1159 -0.6607 -0.1842 0.2091 -0.0000 0.0000 -0.0000 3.5960 -0.3098 -2.0182 -20.4744 1.9373 -3.6844 -54.9640 7.3436 -15.2891 -0.0000 0.0000 -10.2868 -0.1806 -3.3607 15.6015 8.0228 2.2940 6.1505 -7.3935 10.0019 9.5155 20.2486 -22.8247 -18.2727 -35.0022 0.0032 0.3072 -31.3014 0.0022 -0.0078 -20.6418 0.0010 -0.0053 -25.6619 0.0037 -3.4356 -29.3251 0.0019 -0.0074 -16.6951 0.0006 -0.0043 -36.5456 0.0035 4.2706 -41.3452 0.0037 -0.0099 -15.8544 0.0006 -0.0041 -33.1995 -0.1281 1.5120 -28.5799 0.0018 -0.0072 -19.8488 0.0009 -0.0051 17.9589 0.9916 0.5294 58.5992 5.8322 0.8591 0.0000 0.0000 8.1548 0.7679 6.0607 15.2566 -3.8249 -2.7132 -4.2572 0.0929 9.0003 -15.0274 -17.1574 -9.6254 19.5627 20.0201 0.0006 1.9161 41.1131 0.0020 0.0052 18.5809 0.0004 0.0025 33.0569 0.0015 -0.8569 38.1604 0.0017 0.0049 14.6376 0.0003 0.0020 39.3764 0.0020 -3.8441 33.8969 0.0014 0.0044 17.1752 0.0004 0.0023 42.2958 0.0023 0.2995 38.4750 0.0017 0.0049 26.1430 0.0008 0.0035 -19.6788 8.0416 10.4172 61.6465 -3.6641 0.7662 -4.7014 0.7939 -10.4385 0.8500 -0.0000 -0.0000 -5.7696 -7.7187 7.0376 19.9748 0.4940 2.0676 -9.4082 0.7309 -9.6895 1.3984 0.0000 -0.0000 
-0.0617 94.0232 -5.2999 3.7015 -5.3948 -1.1057 3.1117 0.9306 0.5451 0.8451 0.2671 0.1561 0.8462 0.2660 0.1543 -0.6831 -0.0650 0.2091 -0.0000 0.0000 -0.0000 3.7740 0.6843 -2.1817 -20.4138 1.9599 -3.7835 -53.6263 8.6925 -18.2224 -0.0000 -0.0000 -12.7873 0.3382 -5.8380 14.2511 8.0228 2.2940 6.1505 -7.3935 10.0019 9.5155 20.2486 -22.8247 -18.2727 -35.0021 0.0032 0.3072 -31.3014 0.0022 -0.0078 -20.6418 0.0010 -0.0053 -25.6619 0.0037 -3.4356 -29.3251 0.0019 -0.0074 -16.6951 0.0006 -0.0043 -36.5457 0.0034 4.2705 -41.3452 0.0038 -0.0099 -15.8544 0.0006 -0.0041 -33.1995 -0.1281 1.5120 -28.5800 0.0018 -0.0072 -19.8488 0.0009 -0.0051 17.8135 0.8994 0.1745 59.0104 6.1690 -2.8424 -0.0000 -0.0000 8.2890 1.9314 4.5974 18.1353 -3.8249 -2.7132 -4.2572 0.0928 9.0003 -15.0274 -17.1574 -9.6254 19.5627 20.0201 0.0006 1.9161 41.1131 0.0020 0.0052 18.5809 0.0004 0.0025 33.0570 0.0015 -0.8569 38.1604 0.0017 0.0049 14.6376 0.0003 0.0020 39.3765 0.0020 -3.8441 33.8969 0.0013 0.0044 17.1753 0.0004 0.0023 42.2959 0.0023 0.2995 38.4750 0.0017 0.0049 26.1430 0.0008 0.0035 -14.6615 9.3110 10.9888 62.2947 -6.3322 0.6914 -3.4231 0.7748 -11.8716 0.5570 0.0000 0.0000 -8.3899 -7.4944 7.2244 21.8358 -1.9286 1.9019 -8.8088 0.6644 -9.3096 1.5949 -0.0000 -0.0000 
-0.0443 93.7946 -8.0770 5.8537 -5.4884 -1.5105 2.6928 -0.1697 0.9786 0.8167 -0.0434 0.1945 0.8169 -0.0426 0.1955 -0.6979 0.0413 0.1916 -0.0000 0.0000 -0.0000 3.9268 1.4480 -2.2941 -20.3591 2.0147 -4.0011 -52.0470 10.0894 -20.8814 0.0000 0.0000 -15.6590 1.3298 -8.1296 12.0908 8.0228 2.2940 6.1505 -7.3935 10.0019 9.5155 20.2486 -22.8247 -18.2727 -35.0021 0.0032 0.3072 -31.3014 0.0022 -0.0078 -20.6418 0.0010 -0.0053 -25.6619 0.0036 -3.4357 -29.3251 0.0019 -0.0074 -16.6951 0.0006 -0.0043 -36.5457 0.0034 4.2705 -41.3452 0.0037 -0.0099 -15.8544 0.0006 -0.0041 -33.1995 -0.1281 1.5120 -28.5799 0.0018 -0.0072 -19.8488 0.0009 -0.0051 17.7483 0.7597 -0.3891 59.3803 6.0132 -6.0305 -0.0000 0.0000 8.4093 2.7852 3.6431 20.0375 -3.8249 -2.7132 -4.2572 0.0928 9.0003 -15.0274 -17.1574 -9.6254 19.5627 20.0201 0.0006 1.9161 41.1131 0.0020 0.0052 18.5809 0.0004 0.0025 33.0570 0.0015 -0.8569 38.1604 0.0017 0.0049 14.6376 0.0003 0.0020 39.3765 0.0020 -3.8441 33.8969 0.0013 0.0044 17.1753 0.0004 0.0023 42.2959 0.0023 0.2995 38.4750 0.0017 0.0049 26.1431 0.0008 0.0035 -9.2433 10.2940 11.1116 60.5288 -7.8242 0.9124 -1.4728 0.6266 -13.0352 -0.6931 0.0000 -0.0000 -10.6543 -7.3817 7.2804 22.7007 -4.3853 1.9044 -8.1504 0.6037 -8.9175 1.9452 -0.0000 0.0000 
